<?xml version="1.0" encoding="iso-8859-1"?>
<!-- Uploaded to: SVG Repo, www.svgrepo.com, Generator: SVG Repo Mixer Tools -->
<!DOCTYPE svg PUBLIC "-//W3C//DTD SVG 1.1//EN" "http://www.w3.org/Graphics/SVG/1.1/DTD/svg11.dtd">
<svg fill="#000000" height="800px" width="800px" version="1.1" id="Capa_1" xmlns="http://www.w3.org/2000/svg" xmlns:xlink="http://www.w3.org/1999/xlink" 
	 viewBox="0 0 60 60" xml:space="preserve">
<g>
	<path d="M43.646,11C42.25,4.674,36.538,0,30,0S17.75,4.674,16.354,11H0v13h8v-4h10v4h24v-4h10v4h8V11H43.646z M30,2
		c5.455,0,10.25,3.795,11.603,9H18.397C19.75,5.795,24.545,2,30,2z"/>
	<path d="M52,30H42v-4H18v4H8v-4H0v34h60V26h-8V30z M42,47h-7v7H25v-7h-7V37h7v-7h10v7h7V47z"/>
</g>
</svg>