<?xml version="1.0" encoding="iso-8859-1"?>
<!-- Uploaded to: SVG Repo, www.svgrepo.com, Generator: SVG Repo Mixer Tools -->
<!DOCTYPE svg PUBLIC "-//W3C//DTD SVG 1.1//EN" "http://www.w3.org/Graphics/SVG/1.1/DTD/svg11.dtd">
<svg fill="#000000" height="800px" width="800px" version="1.1" id="Capa_1" xmlns="http://www.w3.org/2000/svg" xmlns:xlink="http://www.w3.org/1999/xlink" 
	 viewBox="0 0 59 59" xml:space="preserve">
<g>
	<path d="M28.503,4c1.654,0,3-1.346,3-3V0h-6v1C25.503,2.654,26.849,4,28.503,4z"/>
	<path d="M24.503,31h23.919c-1.127-5.48-4.938-9.99-10.919-12.658V16h1.475c0.841,0,1.525-0.684,1.525-1.525v-2.95
		c0-0.841-0.684-1.525-1.525-1.525h-1.475V8.394l-1.56-1.054C35.714,7.168,35.406,7,35.003,7c-0.827,0-1.5,0.673-1.5,1.5
		s0.673,1.5,1.5,1.5c0.403,0,0.71-0.168,0.897-0.309c0.441-0.333,1.068-0.245,1.4,0.195c0.026,0.035,0.034,0.077,0.055,0.114h-2.353
		h-3.149c-0.219-0.456-0.351-0.961-0.351-1.5c0-1.93,1.57-3.5,3.5-3.5c0.758,0,1.485,0.247,2.103,0.713l0.397,0.269V1.498
		C37.503,0.672,36.831,0,36.005,0h-2.502v1c0,2.757-2.243,5-5,5s-5-2.243-5-5V0h-0.502c-0.826,0-1.498,0.672-1.498,1.498V10h-1.475
		c-0.841,0-1.525,0.684-1.525,1.525v2.95c0,0.841,0.684,1.525,1.525,1.525h1.475v2.342C13.406,21.954,9.27,28.936,10.416,37.146
		l2.736,18.547C13.43,57.578,15.077,59,16.983,59h25.04c1.906,0,3.553-1.422,3.831-3.307L46.989,48H24.503V31z M23.553,10h-2
		c0.252-2.244,2.139-4,4.449-4s4.197,1.756,4.449,4h-2c-0.232-1.14-1.242-2-2.45-2S23.786,8.86,23.553,10z"/>
	<path d="M48.707,33H26.503v13h20.781l1.307-8.862C48.79,35.717,48.819,34.336,48.707,33z"/>
</g>
</svg>